<svg viewBox="0 0 155 23" fill="none" xmlns="http://www.w3.org/2000/svg">
<path d="M20.8337 0.478027L28.7121 8.31986V8.29902L30.0154 9.59715H31.7975L28.7121 6.52401V0.478027H35.8988V15.4732H25.5422V22.5219H15.0651L5.99942 13.4972H4.21736L7.18665 16.4547V22.5219H0V7.52653H10.3823L18.366 15.4732H25.5165L17.5328 7.52653H10.4514V0.478027H20.8337Z" fill="#18BF6F"/>
<path d="M55.2741 4.84242H43.203V7.56376H47.6932V18.5463H50.8033V7.56376H55.2741V4.84242Z" fill="white"/>
<path d="M54.4923 18.5463H57.6024V11.3348L62.598 11.4514V8.73004L56.164 8.57454C55.0949 8.5551 54.4923 9.13824 54.4923 10.2073V18.5463Z" fill="white"/>
<path d="M63.1962 15.8638C63.1962 16.8746 63.721 18.7407 66.7728 18.7407C69.5135 18.7407 70.466 17.3606 70.8353 15.7278H71.6129L71.1269 16.8941V17.0884C71.1269 18.0215 71.6517 18.5463 72.5848 18.5463H74.7424V15.825H73.3234V13.0647C73.3234 9.83802 70.952 8.53566 68.2501 8.53566C65.5093 8.53566 63.3905 9.99352 63.3905 12.4816H66.3063C66.3063 11.5874 67.006 11.0626 68.2501 11.0626C69.5913 11.0626 70.2133 11.5486 70.2133 12.3455L67.1227 12.7732C64.2069 13.1814 63.1962 14.1727 63.1962 15.8638ZM66.3063 15.2807C66.3063 14.717 66.7728 14.5809 67.7058 14.4448L70.2133 14.095C70.2133 15.3001 69.0859 16.0193 67.3754 16.0193C66.8505 16.0193 66.3063 15.8444 66.3063 15.2807Z" fill="white"/>
<path d="M86.7556 18.5463V4.25928H83.6455V9.33262L84.2287 11.0821H83.4511C82.9457 9.7797 82.0127 8.53566 79.583 8.53566C76.745 8.53566 75.326 10.8488 75.326 13.6284C75.326 16.4081 76.745 18.7407 79.583 18.7407C82.0127 18.7407 82.9457 17.4966 83.4511 16.1943H84.2287L83.6455 17.9437V18.5463H86.7556ZM83.6455 13.6284C83.6455 15.2807 82.7125 16.0193 81.0408 16.0193C79.3691 16.0193 78.4361 15.2807 78.4361 13.6284C78.4361 11.9762 79.3691 11.257 81.0408 11.257C82.7125 11.257 83.6455 11.9762 83.6455 13.6284Z" fill="white"/>
<path d="M87.9304 13.5118C87.9304 16.2915 89.6604 18.7407 93.4314 18.7407C96.8331 18.7407 98.4464 16.5053 98.6408 15.0863H95.5307C95.3363 15.825 94.5199 16.2137 93.4314 16.2137C91.6625 16.2137 90.8461 15.4168 90.8461 14.2893H98.2909V13.3174C98.2909 10.3434 96.1527 8.53566 93.1009 8.53566C90.0492 8.53566 87.9304 10.4017 87.9304 13.5118ZM90.8461 12.5399C90.8461 11.8013 91.3709 11.0626 93.1009 11.0626C94.8309 11.0626 95.3752 11.8013 95.3752 12.5399H90.8461Z" fill="white"/>
<path d="M99.6047 13.6284C99.6047 16.9135 101.84 18.7407 104.97 18.7407C107.652 18.7407 110.101 17.2828 110.237 14.4837H107.127C107.011 15.3584 106.214 16.0193 104.97 16.0193C103.492 16.0193 102.715 15.1446 102.715 13.6284C102.715 12.1317 103.492 11.257 104.97 11.257C106.214 11.257 107.011 11.9179 107.127 12.7926H110.237C110.101 9.99352 107.652 8.53566 104.97 8.53566C101.84 8.53566 99.6047 10.3628 99.6047 13.6284Z" fill="white"/>
<path d="M116.529 16.0193C115.032 16.0193 114.507 15.339 114.507 13.5507V8.73004H111.397V14.0366C111.397 17.069 112.914 18.7407 115.421 18.7407C117.52 18.7407 118.745 17.3606 119.134 15.6111H119.911L119.328 17.3606V18.5463H122.438V8.73004H119.328V12.365C119.328 15.1252 118.22 16.0193 116.529 16.0193Z" fill="white"/>
<path d="M123.987 18.5463H127.097V11.3348L132.093 11.4514V8.73004L125.659 8.57454C124.59 8.5551 123.987 9.13824 123.987 10.2073V18.5463Z" fill="white"/>
<path d="M140.827 8.73004L138.591 17.7688H137.814L135.559 8.73004H132.488L134.995 18.5463H141.41L143.898 8.73004H140.827Z" fill="white"/>
<path d="M144.29 13.5118C144.29 16.2915 146.02 18.7407 149.791 18.7407C153.192 18.7407 154.806 16.5053 155 15.0863H151.89C151.695 15.825 150.879 16.2137 149.791 16.2137C148.022 16.2137 147.205 15.4168 147.205 14.2893H154.65V13.3174C154.65 10.3434 152.512 8.53566 149.46 8.53566C146.408 8.53566 144.29 10.4017 144.29 13.5118ZM147.205 12.5399C147.205 11.8013 147.73 11.0626 149.46 11.0626C151.19 11.0626 151.734 11.8013 151.734 12.5399H147.205Z" fill="white"/>
</svg>
